<?xml version="1.0" encoding="utf-8" ?>
<svg baseProfile="full" height="100%" version="1.1" width="100%" xmlns="http://www.w3.org/2000/svg" xmlns:ev="http://www.w3.org/2001/xml-events" xmlns:xlink="http://www.w3.org/1999/xlink"><defs /><line stroke="black" stroke-width="4" x1="101" x2="157" y1="200" y2="298" /><line stroke="black" stroke-width="4" x1="157" x2="215" y1="298" y2="200" /><line stroke="black" stroke-width="4" x1="101" x2="215" y1="200" y2="200" /><line stroke="black" stroke-width="4" x1="157" x2="272" y1="298" y2="298" /><line stroke="black" stroke-width="4" x1="215" x2="272" y1="200" y2="298" /><line stroke="black" stroke-width="4" x1="157" x2="215" y1="298" y2="200" /><line stroke="black" stroke-width="4" x1="272" x2="330" y1="298" y2="200" /><line stroke="black" stroke-width="4" x1="215" x2="330" y1="200" y2="200" /><line stroke="black" stroke-width="4" x1="215" x2="272" y1="200" y2="298" /><line stroke="black" stroke-width="4" x1="398" x2="455" y1="298" y2="200" /><line stroke="black" stroke-width="4" x1="340" x2="398" y1="200" y2="298" /><line stroke="black" stroke-width="4" x1="340" x2="455" y1="200" y2="200" /><line stroke="black" stroke-width="4" x1="283" x2="398" y1="298" y2="298" /><line stroke="black" stroke-width="4" x1="283" x2="340" y1="298" y2="200" /><line stroke="black" stroke-width="4" x1="340" x2="398" y1="200" y2="298" /></svg>