<?xml version="1.0" encoding="utf-8" ?>
<svg baseProfile="full" height="100%" version="1.1" width="100%" xmlns="http://www.w3.org/2000/svg" xmlns:ev="http://www.w3.org/2001/xml-events" xmlns:xlink="http://www.w3.org/1999/xlink"><defs /><line stroke="black" stroke-width="4" x1="155" x2="189" y1="200" y2="313" /><line stroke="black" stroke-width="4" x1="189" x2="541" y1="313" y2="200" /><line stroke="black" stroke-width="4" x1="541" x2="155" y1="200" y2="200" /><line stroke="black" stroke-width="4" x1="101" x2="163" y1="342" y2="444" /><line stroke="black" stroke-width="4" x1="163" x2="541" y1="444" y2="200" /><line stroke="black" stroke-width="4" x1="541" x2="101" y1="200" y2="342" /><line stroke="black" stroke-width="4" x1="346" x2="435" y1="326" y2="406" /><line stroke="black" stroke-width="4" x1="435" x2="541" y1="406" y2="200" /><line stroke="black" stroke-width="4" x1="541" x2="346" y1="200" y2="326" /><line stroke="black" stroke-width="4" x1="352" x2="459" y1="571" y2="622" /><line stroke="black" stroke-width="4" x1="459" x2="541" y1="622" y2="200" /><line stroke="black" stroke-width="4" x1="541" x2="352" y1="200" y2="571" /><line stroke="black" stroke-width="4" x1="464" x2="585" y1="596" y2="615" /><line stroke="black" stroke-width="4" x1="585" x2="541" y1="615" y2="200" /><line stroke="black" stroke-width="4" x1="541" x2="464" y1="200" y2="596" /></svg>