<?xml version="1.0" encoding="utf-8" ?>
<svg baseProfile="full" height="100%" version="1.1" width="100%" xmlns="http://www.w3.org/2000/svg" xmlns:ev="http://www.w3.org/2001/xml-events" xmlns:xlink="http://www.w3.org/1999/xlink"><defs /><line stroke="black" stroke-width="4" x1="101" x2="101" y1="200" y2="235" /><line stroke="black" stroke-width="4" x1="101" x2="258" y1="235" y2="200" /><line stroke="black" stroke-width="4" x1="101" x2="258" y1="200" y2="200" /><line stroke="black" stroke-width="4" x1="104" x2="113" y1="234" y2="270" /><line stroke="black" stroke-width="4" x1="113" x2="258" y1="270" y2="200" /><line stroke="black" stroke-width="4" x1="104" x2="258" y1="234" y2="200" /><line stroke="black" stroke-width="4" x1="114" x2="154" y1="270" y2="275" /><line stroke="black" stroke-width="4" x1="154" x2="258" y1="275" y2="200" /><line stroke="black" stroke-width="4" x1="114" x2="258" y1="270" y2="200" /><line stroke="black" stroke-width="4" x1="146" x2="149" y1="315" y2="278" /><line stroke="black" stroke-width="4" x1="146" x2="258" y1="315" y2="200" /><line stroke="black" stroke-width="4" x1="149" x2="258" y1="278" y2="200" /><line stroke="black" stroke-width="4" x1="147" x2="188" y1="314" y2="289" /><line stroke="black" stroke-width="4" x1="188" x2="258" y1="289" y2="200" /><line stroke="black" stroke-width="4" x1="147" x2="258" y1="314" y2="200" /><line stroke="black" stroke-width="4" x1="160" x2="198" y1="326" y2="297" /><line stroke="black" stroke-width="4" x1="198" x2="258" y1="297" y2="200" /><line stroke="black" stroke-width="4" x1="160" x2="258" y1="326" y2="200" /><line stroke="black" stroke-width="4" x1="173" x2="206" y1="335" y2="321" /><line stroke="black" stroke-width="4" x1="206" x2="258" y1="321" y2="200" /><line stroke="black" stroke-width="4" x1="173" x2="258" y1="335" y2="200" /><line stroke="black" stroke-width="4" x1="206" x2="220" y1="322" y2="354" /><line stroke="black" stroke-width="4" x1="220" x2="258" y1="354" y2="200" /><line stroke="black" stroke-width="4" x1="206" x2="258" y1="322" y2="200" /><line stroke="black" stroke-width="4" x1="221" x2="261" y1="349" y2="353" /><line stroke="black" stroke-width="4" x1="258" x2="261" y1="200" y2="353" /><line stroke="black" stroke-width="4" x1="221" x2="258" y1="349" y2="200" /><line stroke="black" stroke-width="4" x1="260" x2="301" y1="335" y2="340" /><line stroke="black" stroke-width="4" x1="258" x2="301" y1="200" y2="340" /><line stroke="black" stroke-width="4" x1="258" x2="260" y1="200" y2="335" /><line stroke="black" stroke-width="4" x1="301" x2="344" y1="340" y2="308" /><line stroke="black" stroke-width="4" x1="258" x2="344" y1="200" y2="308" /><line stroke="black" stroke-width="4" x1="258" x2="301" y1="200" y2="340" /><line stroke="black" stroke-width="4" x1="344" x2="346" y1="308" y2="265" /><line stroke="black" stroke-width="4" x1="258" x2="346" y1="200" y2="265" /><line stroke="black" stroke-width="4" x1="258" x2="344" y1="200" y2="308" /><line stroke="black" stroke-width="4" x1="346" x2="383" y1="265" y2="252" /><line stroke="black" stroke-width="4" x1="258" x2="383" y1="200" y2="252" /><line stroke="black" stroke-width="4" x1="258" x2="346" y1="200" y2="265" /><line stroke="black" stroke-width="4" x1="362" x2="389" y1="244" y2="234" /><line stroke="black" stroke-width="4" x1="258" x2="389" y1="200" y2="234" /><line stroke="black" stroke-width="4" x1="258" x2="362" y1="200" y2="244" /><line stroke="black" stroke-width="4" x1="332" x2="367" y1="218" y2="200" /><line stroke="black" stroke-width="4" x1="258" x2="367" y1="200" y2="200" /><line stroke="black" stroke-width="4" x1="258" x2="332" y1="200" y2="218" /><line stroke="black" stroke-width="4" x1="423" x2="424" y1="252" y2="200" /><line stroke="black" stroke-width="4" x1="371" x2="423" y1="200" y2="252" /><line stroke="black" stroke-width="4" x1="371" x2="424" y1="200" y2="200" /><line stroke="black" stroke-width="4" x1="560" x2="560" y1="280" y2="200" /><line stroke="black" stroke-width="4" x1="479" x2="560" y1="200" y2="280" /><line stroke="black" stroke-width="4" x1="479" x2="560" y1="200" y2="200" /><line stroke="black" stroke-width="4" x1="534" x2="534" y1="254" y2="293" /><line stroke="black" stroke-width="4" x1="479" x2="534" y1="200" y2="293" /><line stroke="black" stroke-width="4" x1="479" x2="534" y1="200" y2="254" /><line stroke="black" stroke-width="4" x1="502" x2="533" y1="272" y2="292" /><line stroke="black" stroke-width="4" x1="479" x2="502" y1="200" y2="272" /><line stroke="black" stroke-width="4" x1="479" x2="533" y1="200" y2="292" /><line stroke="black" stroke-width="4" x1="476" x2="496" y1="283" y2="249" /><line stroke="black" stroke-width="4" x1="476" x2="479" y1="283" y2="200" /><line stroke="black" stroke-width="4" x1="479" x2="496" y1="200" y2="249" /><line stroke="black" stroke-width="4" x1="447" x2="478" y1="277" y2="255" /><line stroke="black" stroke-width="4" x1="447" x2="479" y1="277" y2="200" /><line stroke="black" stroke-width="4" x1="478" x2="479" y1="255" y2="200" /><line stroke="black" stroke-width="4" x1="430" x2="449" y1="256" y2="272" /><line stroke="black" stroke-width="4" x1="430" x2="479" y1="256" y2="200" /><line stroke="black" stroke-width="4" x1="449" x2="479" y1="272" y2="200" /><line stroke="black" stroke-width="4" x1="424" x2="430" y1="205" y2="257" /><line stroke="black" stroke-width="4" x1="424" x2="479" y1="205" y2="200" /><line stroke="black" stroke-width="4" x1="430" x2="479" y1="257" y2="200" /></svg>