<?xml version="1.0" encoding="utf-8" ?>
<svg baseProfile="full" height="100%" version="1.1" width="100%" xmlns="http://www.w3.org/2000/svg" xmlns:ev="http://www.w3.org/2001/xml-events" xmlns:xlink="http://www.w3.org/1999/xlink"><defs /><line stroke="black" stroke-width="4" x1="101" x2="167" y1="200" y2="218" /><line stroke="black" stroke-width="4" x1="167" x2="264" y1="218" y2="200" /><line stroke="black" stroke-width="4" x1="101" x2="264" y1="200" y2="200" /><line stroke="black" stroke-width="4" x1="170" x2="208" y1="217" y2="216" /><line stroke="black" stroke-width="4" x1="208" x2="264" y1="216" y2="200" /><line stroke="black" stroke-width="4" x1="170" x2="264" y1="217" y2="200" /><line stroke="black" stroke-width="4" x1="186" x2="203" y1="223" y2="270" /><line stroke="black" stroke-width="4" x1="203" x2="264" y1="270" y2="200" /><line stroke="black" stroke-width="4" x1="186" x2="264" y1="223" y2="200" /><line stroke="black" stroke-width="4" x1="203" x2="240" y1="270" y2="285" /><line stroke="black" stroke-width="4" x1="240" x2="264" y1="285" y2="200" /><line stroke="black" stroke-width="4" x1="203" x2="264" y1="270" y2="200" /><line stroke="black" stroke-width="4" x1="248" x2="273" y1="256" y2="289" /><line stroke="black" stroke-width="4" x1="264" x2="273" y1="200" y2="289" /><line stroke="black" stroke-width="4" x1="248" x2="264" y1="256" y2="200" /><line stroke="black" stroke-width="4" x1="272" x2="311" y1="271" y2="276" /><line stroke="black" stroke-width="4" x1="264" x2="311" y1="200" y2="276" /><line stroke="black" stroke-width="4" x1="264" x2="272" y1="200" y2="271" /><line stroke="black" stroke-width="4" x1="299" x2="310" y1="230" y2="274" /><line stroke="black" stroke-width="4" x1="264" x2="299" y1="200" y2="230" /><line stroke="black" stroke-width="4" x1="264" x2="310" y1="200" y2="274" /><line stroke="black" stroke-width="4" x1="321" x2="339" y1="248" y2="239" /><line stroke="black" stroke-width="4" x1="264" x2="339" y1="200" y2="239" /><line stroke="black" stroke-width="4" x1="264" x2="321" y1="200" y2="248" /><line stroke="black" stroke-width="4" x1="315" x2="338" y1="226" y2="215" /><line stroke="black" stroke-width="4" x1="264" x2="338" y1="200" y2="215" /><line stroke="black" stroke-width="4" x1="264" x2="315" y1="200" y2="226" /><line stroke="black" stroke-width="4" x1="311" x2="331" y1="209" y2="200" /><line stroke="black" stroke-width="4" x1="264" x2="331" y1="200" y2="200" /><line stroke="black" stroke-width="4" x1="264" x2="311" y1="200" y2="209" /><line stroke="black" stroke-width="4" x1="423" x2="441" y1="245" y2="200" /><line stroke="black" stroke-width="4" x1="384" x2="423" y1="200" y2="245" /><line stroke="black" stroke-width="4" x1="384" x2="441" y1="200" y2="200" /><line stroke="black" stroke-width="4" x1="389" x2="421" y1="259" y2="244" /><line stroke="black" stroke-width="4" x1="384" x2="389" y1="200" y2="259" /><line stroke="black" stroke-width="4" x1="384" x2="421" y1="200" y2="244" /><line stroke="black" stroke-width="4" x1="364" x2="389" y1="245" y2="262" /><line stroke="black" stroke-width="4" x1="364" x2="384" y1="245" y2="200" /><line stroke="black" stroke-width="4" x1="384" x2="389" y1="200" y2="262" /><line stroke="black" stroke-width="4" x1="350" x2="357" y1="224" y2="263" /><line stroke="black" stroke-width="4" x1="350" x2="384" y1="224" y2="200" /><line stroke="black" stroke-width="4" x1="357" x2="384" y1="263" y2="200" /><line stroke="black" stroke-width="4" x1="349" x2="356" y1="200" y2="219" /><line stroke="black" stroke-width="4" x1="349" x2="384" y1="200" y2="200" /><line stroke="black" stroke-width="4" x1="356" x2="384" y1="219" y2="200" /><line stroke="black" stroke-width="4" x1="541" x2="564" y1="248" y2="200" /><line stroke="black" stroke-width="4" x1="497" x2="541" y1="200" y2="248" /><line stroke="black" stroke-width="4" x1="497" x2="564" y1="200" y2="200" /><line stroke="black" stroke-width="4" x1="488" x2="549" y1="264" y2="258" /><line stroke="black" stroke-width="4" x1="488" x2="497" y1="264" y2="200" /><line stroke="black" stroke-width="4" x1="497" x2="549" y1="200" y2="258" /><line stroke="black" stroke-width="4" x1="456" x2="488" y1="248" y2="270" /><line stroke="black" stroke-width="4" x1="456" x2="497" y1="248" y2="200" /><line stroke="black" stroke-width="4" x1="488" x2="497" y1="270" y2="200" /><line stroke="black" stroke-width="4" x1="441" x2="456" y1="224" y2="248" /><line stroke="black" stroke-width="4" x1="441" x2="497" y1="224" y2="200" /><line stroke="black" stroke-width="4" x1="456" x2="497" y1="248" y2="200" /><line stroke="black" stroke-width="4" x1="441" x2="463" y1="200" y2="214" /><line stroke="black" stroke-width="4" x1="441" x2="497" y1="200" y2="200" /><line stroke="black" stroke-width="4" x1="463" x2="497" y1="214" y2="200" /><line stroke="black" stroke-width="4" x1="649" x2="676" y1="248" y2="200" /><line stroke="black" stroke-width="4" x1="618" x2="649" y1="200" y2="248" /><line stroke="black" stroke-width="4" x1="618" x2="676" y1="200" y2="200" /><line stroke="black" stroke-width="4" x1="610" x2="654" y1="278" y2="257" /><line stroke="black" stroke-width="4" x1="610" x2="618" y1="278" y2="200" /><line stroke="black" stroke-width="4" x1="618" x2="654" y1="200" y2="257" /><line stroke="black" stroke-width="4" x1="567" x2="609" y1="244" y2="284" /><line stroke="black" stroke-width="4" x1="567" x2="618" y1="244" y2="200" /><line stroke="black" stroke-width="4" x1="609" x2="618" y1="284" y2="200" /><line stroke="black" stroke-width="4" x1="564" x2="572" y1="200" y2="239" /><line stroke="black" stroke-width="4" x1="564" x2="618" y1="200" y2="200" /><line stroke="black" stroke-width="4" x1="572" x2="618" y1="239" y2="200" /><line stroke="black" stroke-width="4" x1="762" x2="789" y1="249" y2="200" /><line stroke="black" stroke-width="4" x1="725" x2="762" y1="200" y2="249" /><line stroke="black" stroke-width="4" x1="725" x2="789" y1="200" y2="200" /><line stroke="black" stroke-width="4" x1="723" x2="761" y1="272" y2="248" /><line stroke="black" stroke-width="4" x1="723" x2="725" y1="272" y2="200" /><line stroke="black" stroke-width="4" x1="725" x2="761" y1="200" y2="248" /><line stroke="black" stroke-width="4" x1="676" x2="724" y1="247" y2="262" /><line stroke="black" stroke-width="4" x1="676" x2="725" y1="247" y2="200" /><line stroke="black" stroke-width="4" x1="724" x2="725" y1="262" y2="200" /><line stroke="black" stroke-width="4" x1="694" x2="695" y1="212" y2="228" /><line stroke="black" stroke-width="4" x1="694" x2="725" y1="212" y2="200" /><line stroke="black" stroke-width="4" x1="695" x2="725" y1="228" y2="200" /><line stroke="black" stroke-width="4" x1="677" x2="701" y1="200" y2="209" /><line stroke="black" stroke-width="4" x1="677" x2="725" y1="200" y2="200" /><line stroke="black" stroke-width="4" x1="701" x2="725" y1="209" y2="200" /><line stroke="black" stroke-width="4" x1="824" x2="844" y1="245" y2="200" /><line stroke="black" stroke-width="4" x1="791" x2="824" y1="200" y2="245" /><line stroke="black" stroke-width="4" x1="791" x2="844" y1="200" y2="200" /><line stroke="black" stroke-width="4" x1="789" x2="822" y1="283" y2="244" /><line stroke="black" stroke-width="4" x1="789" x2="791" y1="283" y2="200" /><line stroke="black" stroke-width="4" x1="791" x2="822" y1="200" y2="244" /><line stroke="black" stroke-width="4" x1="978" x2="994" y1="200" y2="244" /><line stroke="black" stroke-width="4" x1="917" x2="994" y1="200" y2="244" /><line stroke="black" stroke-width="4" x1="917" x2="978" y1="200" y2="200" /><line stroke="black" stroke-width="4" x1="948" x2="990" y1="244" y2="241" /><line stroke="black" stroke-width="4" x1="917" x2="948" y1="200" y2="244" /><line stroke="black" stroke-width="4" x1="917" x2="990" y1="200" y2="241" /><line stroke="black" stroke-width="4" x1="921" x2="964" y1="256" y2="264" /><line stroke="black" stroke-width="4" x1="917" x2="921" y1="200" y2="256" /><line stroke="black" stroke-width="4" x1="917" x2="964" y1="200" y2="264" /><line stroke="black" stroke-width="4" x1="881" x2="920" y1="270" y2="246" /><line stroke="black" stroke-width="4" x1="881" x2="917" y1="270" y2="200" /><line stroke="black" stroke-width="4" x1="917" x2="920" y1="200" y2="246" /><line stroke="black" stroke-width="4" x1="856" x2="893" y1="240" y2="245" /><line stroke="black" stroke-width="4" x1="856" x2="917" y1="240" y2="200" /><line stroke="black" stroke-width="4" x1="893" x2="917" y1="245" y2="200" /><line stroke="black" stroke-width="4" x1="844" x2="874" y1="205" y2="228" /><line stroke="black" stroke-width="4" x1="844" x2="917" y1="205" y2="200" /><line stroke="black" stroke-width="4" x1="874" x2="917" y1="228" y2="200" /></svg>