<?xml version="1.0" encoding="utf-8" ?>
<svg baseProfile="full" height="100%" version="1.1" width="100%" xmlns="http://www.w3.org/2000/svg" xmlns:ev="http://www.w3.org/2001/xml-events" xmlns:xlink="http://www.w3.org/1999/xlink"><defs /><line stroke="black" stroke-width="4" x1="101" x2="182" y1="200" y2="240" /><line stroke="black" stroke-width="4" x1="182" x2="338" y1="240" y2="200" /><line stroke="black" stroke-width="4" x1="101" x2="338" y1="200" y2="200" /><line stroke="black" stroke-width="4" x1="128" x2="176" y1="255" y2="292" /><line stroke="black" stroke-width="4" x1="176" x2="338" y1="292" y2="200" /><line stroke="black" stroke-width="4" x1="128" x2="338" y1="255" y2="200" /><line stroke="black" stroke-width="4" x1="206" x2="213" y1="275" y2="366" /><line stroke="black" stroke-width="4" x1="213" x2="338" y1="366" y2="200" /><line stroke="black" stroke-width="4" x1="206" x2="338" y1="275" y2="200" /><line stroke="black" stroke-width="4" x1="263" x2="266" y1="299" y2="389" /><line stroke="black" stroke-width="4" x1="266" x2="338" y1="389" y2="200" /><line stroke="black" stroke-width="4" x1="263" x2="338" y1="299" y2="200" /><line stroke="black" stroke-width="4" x1="276" x2="327" y1="362" y2="366" /><line stroke="black" stroke-width="4" x1="327" x2="338" y1="366" y2="200" /><line stroke="black" stroke-width="4" x1="276" x2="338" y1="362" y2="200" /><line stroke="black" stroke-width="4" x1="327" x2="385" y1="362" y2="345" /><line stroke="black" stroke-width="4" x1="338" x2="385" y1="200" y2="345" /><line stroke="black" stroke-width="4" x1="327" x2="338" y1="362" y2="200" /><line stroke="black" stroke-width="4" x1="388" x2="431" y1="353" y2="321" /><line stroke="black" stroke-width="4" x1="338" x2="431" y1="200" y2="321" /><line stroke="black" stroke-width="4" x1="338" x2="388" y1="200" y2="353" /><line stroke="black" stroke-width="4" x1="435" x2="465" y1="328" y2="285" /><line stroke="black" stroke-width="4" x1="338" x2="465" y1="200" y2="285" /><line stroke="black" stroke-width="4" x1="338" x2="435" y1="200" y2="328" /><line stroke="black" stroke-width="4" x1="445" x2="479" y1="272" y2="239" /><line stroke="black" stroke-width="4" x1="338" x2="479" y1="200" y2="239" /><line stroke="black" stroke-width="4" x1="338" x2="445" y1="200" y2="272" /><line stroke="black" stroke-width="4" x1="581" x2="605" y1="245" y2="200" /><line stroke="black" stroke-width="4" x1="497" x2="581" y1="200" y2="245" /><line stroke="black" stroke-width="4" x1="497" x2="605" y1="200" y2="200" /><line stroke="black" stroke-width="4" x1="537" x2="583" y1="272" y2="247" /><line stroke="black" stroke-width="4" x1="497" x2="537" y1="200" y2="272" /><line stroke="black" stroke-width="4" x1="497" x2="583" y1="200" y2="247" /><line stroke="black" stroke-width="4" x1="479" x2="524" y1="272" y2="248" /><line stroke="black" stroke-width="4" x1="479" x2="497" y1="272" y2="200" /><line stroke="black" stroke-width="4" x1="497" x2="524" y1="200" y2="248" /></svg>