<?xml version="1.0" encoding="utf-8" ?>
<svg baseProfile="full" height="100%" version="1.1" width="100%" xmlns="http://www.w3.org/2000/svg" xmlns:ev="http://www.w3.org/2001/xml-events" xmlns:xlink="http://www.w3.org/1999/xlink"><defs /><polygon fill="#8B8682" points="400,185 650,185 650,255 400,255" /><polygon fill="#8B8682" points="497,10 598,19 604,102 549,165 447,141" /><polygon fill="#8B8682" points="320,165 380,165 380,285 510,285 510,305 420,305 320,305" /><polygon fill="#8B8682" points="300,55 360,45 380,135 320,145" /><polygon fill="#8B8682" points="200,35 280,35 280,215 200,215" /><polygon fill="#8B8682" points="170,215 300,265 300,325 180,305 150,245" /><polygon fill="#8B8682" points="90,35 130,95 170,55 180,155 120,195 70,135" /><polygon fill="#8B8682" points="400,125 430,145 410,175 380,155" /><polygon fill="#8B8682" points="90,225 140,225 130,265 90,285" /><polygon fill="#8B8682" points="540,280 541,280 800,280 800,400 540,400" /><polygon fill="#8B8682" points="380,340 381,340 520,340 460,380 540,440 720,460 420,460 140,440 140,300 280,380" /><polygon fill="#8B8682" points="80,300 81,300 140,280 120,360" /><circle cx="621" cy="162" fill="red" r="15" /><line stroke="gray" stroke-width="20" x1="0" x2="0" y1="0" y2="10000000" /><line stroke="black" stroke-width="4" x1="621" x2="410" y1="162" y2="175" /><line stroke="black" stroke-width="4" x1="410" x2="380" y1="175" y2="165" /><line stroke="black" stroke-width="4" x1="380" x2="320" y1="165" y2="165" /><line stroke="black" stroke-width="4" x1="320" x2="280" y1="165" y2="215" /><line stroke="black" stroke-width="4" x1="280" x2="170" y1="215" y2="215" /><line stroke="black" stroke-width="4" x1="170" x2="130" y1="215" y2="265" /><line stroke="black" stroke-width="4" x1="130" x2="90" y1="265" y2="285" /><line stroke="black" stroke-width="4" x1="90" x2="0" y1="285" y2="336.9615242270663" /></svg>