<?xml version="1.0" encoding="utf-8" ?>
<svg baseProfile="full" height="100%" version="1.1" width="100%" xmlns="http://www.w3.org/2000/svg" xmlns:ev="http://www.w3.org/2001/xml-events" xmlns:xlink="http://www.w3.org/1999/xlink"><defs /><polygon fill="#8B8682" points="539,98 549,98 599,118 569,158 519,198 489,138" /><polygon fill="#8B8682" points="559,178 569,178 609,248 519,238" /><polygon fill="#8B8682" points="389,78 459,68 599,68 479,88 459,178 509,248 599,258 499,298" /><polygon fill="#8B8682" points="320,98 330,98 370,118 360,158 330,198 300,158 280,118" /><polygon fill="#8B8682" points="380,208 390,188 430,208 380,228 390,288 360,248 340,208" /><polygon fill="#8B8682" points="352,287 445,305 386,366 291,296" /><polygon fill="#8B8682" points="319,18 293,53 365,80 238,73 257,15" /><polygon fill="#8B8682" points="637,248 516,330 426,238 462,302 451,350 613,348 761,346 754,231 685,183" /><circle cx="479" cy="168" fill="red" r="15" /><line stroke="gray" stroke-width="20" x1="0" x2="0" y1="0" y2="10000000" /><line stroke="black" stroke-width="4" x1="479" x2="509" y1="168" y2="248" /><line stroke="black" stroke-width="4" x1="509" x2="599" y1="248" y2="258" /><line stroke="black" stroke-width="4" x1="599" x2="499" y1="258" y2="298" /><line stroke="black" stroke-width="4" x1="499" x2="426" y1="298" y2="238" /><line stroke="black" stroke-width="4" x1="426" x2="390" y1="238" y2="288" /><line stroke="black" stroke-width="4" x1="390" x2="352" y1="288" y2="287" /><line stroke="black" stroke-width="4" x1="352" x2="0" y1="287" y2="336.47037381524177" /></svg>