<?xml version="1.0" encoding="utf-8" ?>
<svg baseProfile="full" height="100%" version="1.1" width="100%" xmlns="http://www.w3.org/2000/svg" xmlns:ev="http://www.w3.org/2001/xml-events" xmlns:xlink="http://www.w3.org/1999/xlink"><defs /><polygon fill="#8B8682" points="121,39 290,27 284,86 156,110 121,88" /><polygon fill="#8B8682" points="133,206 202,144 254,170 278,224 201,194 156,258" /><polygon fill="#8B8682" points="160,290 247,301 162,398 365,280 276,253 208,233" /><polygon fill="#8B8682" points="170,421 386,298 384,472" /><polygon fill="#8B8682" points="408,297 428,297 565,199 413,475" /><polygon fill="#8B8682" points="300,120 440,160 382,227 320,201" /><polygon fill="#8B8682" points="323,34 440,20 308,85" /><polygon fill="#8B8682" points="500,20 500,140 376,103" /><polygon fill="#8B8682" points="540,20 600,40 600,100 740,100 700,340 660,340 660,140 540,140" /><polygon fill="#8B8682" points="580,240 633,402 896,475 508,466" /><polygon fill="#8B8682" points="780,140 1020,140 1020,480 960,480 960,200 800,200 773,301 900,300 900,340 740,340" /><circle cx="856" cy="270" fill="red" r="15" /><line stroke="gray" stroke-width="20" x1="0" x2="0" y1="0" y2="10000000" /><line stroke="black" stroke-width="4" x1="856" x2="900" y1="270" y2="300" /><line stroke="black" stroke-width="4" x1="900" x2="900" y1="300" y2="340" /><line stroke="black" stroke-width="4" x1="900" x2="896" y1="340" y2="475" /><line stroke="black" stroke-width="4" x1="896" x2="0" y1="475" y2="992.3058411939045" /></svg>